<svg width="19" height="19" viewBox="0 0 19 19" fill="none" xmlns="http://www.w3.org/2000/svg">
	<path d="M19 9.5C19 14.7467 14.7467 19 9.5 19C4.25329 19 0 14.7467 0 9.5C0 4.25329 4.25329 0 9.5 0C14.7467 0 19 4.25329 19 9.5ZM3.515 9.5C3.515 12.8054 6.19458 15.485 9.5 15.485C12.8054 15.485 15.485 12.8054 15.485 9.5C15.485 6.19458 12.8054 3.515 9.5 3.515C6.19458 3.515 3.515 6.19458 3.515 9.5Z" fill="#0F62FE" />
	<path d="M9.5 0C11.3847 2.24745e-08 13.2268 0.560575 14.7919 1.61042L12.8339 4.52957C11.8479 3.86816 10.6873 3.515 9.5 3.515V0Z" fill="#E0E0E0" />
</svg>
